<svg id="PS_One" data-name="PS One" xmlns="http://www.w3.org/2000/svg" viewBox="0 0 265.86 139.08"><defs><style>.cls-1{fill:#e30613;}.cls-2{fill:#00a295;}.cls-3{fill:#fbba00;}.cls-4{fill:#006eb7;}.cls-5{fill-rule:evenodd;}</style></defs><title>psone-black</title><path class="cls-1" d="M119.9.25V61.36l13.83,4.39V14.49c0-2.4,1.07-4,2.8-3.45h0c2.26.63,2.7,2.84,2.7,5.24V36.75c8.62,4.16,15.4,0,15.4-11,0-11.27-4-16.27-15.68-20.29A166.17,166.17,0,0,0,119.9.25Z" transform="translate(-0.14 -0.25)"/><path class="cls-2" d="M117.22,45.18V39.34l-3.39-1s-15.15,5.42-16.35,5.82-2.86,1.06-2.86,1.06L106.46,49Z" transform="translate(-0.14 -0.25)"/><path class="cls-2" d="M136.35,45v6.69L146.67,48Z" transform="translate(-0.14 -0.25)"/><polygon class="cls-2" points="117.08 52.24 117.08 50 113.78 51.18 117.08 52.24"/><path class="cls-2" d="M136.35,56.76v1.87l9,2.89s18.13-6.52,19-6.82,2.26-.83,2.26-.83l-12.19-3.58Z" transform="translate(-0.14 -0.25)"/><polygon class="cls-3" points="136.21 64.52 145.21 61.27 136.21 58.38 136.21 64.52"/><path class="cls-3" d="M113.92,51.43l-3,1.09c-2.42.92-6.88,1.5-9.25.39-2.21-1,.45-2.36,1.77-2.81l3-1.06L94.62,45.23c-3.17,1.32-6.53,3.27-6.36,5.47s1.87,4,8,5.71a47.73,47.73,0,0,0,20.92,1v-5Z" transform="translate(-0.14 -0.25)"/><polygon class="cls-4" points="117.08 36.9 113.69 38.1 117.08 39.09 117.08 36.9"/><path class="cls-4" d="M173.05,47.93c-.26-2.23-3.31-3.9-7.36-5.16a44.25,44.25,0,0,0-14.77-2.12,45.46,45.46,0,0,0-14.57,2.73V45l10.32,3,4.65-1.65a13.1,13.1,0,0,1,3.14-.68,16.76,16.76,0,0,1,4.22.09c.37.05,1.83.38,2.08,1.11s-1,1.55-2.16,2-4.16,1.46-4.16,1.46l12.19,3.58C169.11,53,173.4,50.86,173.05,47.93Z" transform="translate(-0.14 -0.25)"/><path d="M.14,88.71V125.5H5.55V92.32h6s6-.67,6,6.84c0,0,.52,8.31-3.39,8.48H9.41V111h4.8s6.63.49,8.21-5.07c0,0,2.32-7.6-.46-13.75,0,0-1.44-4-8.2-3.46Z" transform="translate(-0.14 -0.25)"/><polygon points="28.03 88.46 33.51 88.46 33.51 125.11 28.03 125.11 28.03 88.46 28.03 88.46"/><polygon points="183.38 96.58 188.87 96.58 188.87 125.11 183.38 125.11 183.38 96.58 183.38 96.58"/><polygon points="183.38 88.47 188.87 88.47 188.87 93.35 183.38 93.35 183.38 88.47 183.38 88.47"/><path d="M42.92,100.51V96.73h8.15s8.64-.65,10.22,5.65a53.91,53.91,0,0,1,.27,8.56v14.42H50.4S39,126.63,39.17,116.27c0,0-.94-8.73,9.5-8.8H52.2v3.17S46.87,110,46,112.37a7.79,7.79,0,0,0,.05,7.45s1.38,1.72,5.21,1.8H56V105.46s-.08-5-4.5-5.1l-8.53.15Z" transform="translate(-0.14 -0.25)"/><path d="M141,100.51V96.73h8.15s8.64-.65,10.22,5.65a53.91,53.91,0,0,1,.27,8.56v14.42H148.52s-11.45,1.27-11.22-9.09c0,0-1-8.73,9.49-8.8h3.53v3.17s-5.33-.67-6.16,1.73a7.79,7.79,0,0,0,.05,7.45s1.38,1.72,5.21,1.8h4.65V105.46s-.08-5-4.5-5.1l-8.53.15Z" transform="translate(-0.14 -0.25)"/><path d="M86.48,96.83h5.15l-17.7,42.5H69.46l5.62-14s.91-.6-1.15-4.9l-9-23.64h6.61l7.15,20.26,7.82-20.25Z" transform="translate(-0.14 -0.25)"/><path d="M113.79,92.4V88.71h-8.52S95,88.2,95,96.83c0,0-.5,6.69,1.3,9.09,0,0,1.73,3.25,8.26,3.32,0,0,6.06-.63,5.69,5.31,0,0,.25,7.15-4.18,7.67a41,41,0,0,1-4.29.17l-5.39-.2v3.17H107s6.75.44,8-4.89a19.4,19.4,0,0,0,.17-11.41s-.91-4.9-8-4.9c0,0-4.88.18-5.93-2.45a8.53,8.53,0,0,1,.5-7.61s.93-1.86,4.15-1.86l7.92.16Z" transform="translate(-0.14 -0.25)"/><path d="M127.69,117.25V100.61h6.49V97.09H128v-4.9H122.2v27.69c-.26,5.48,4.77,5.39,4.77,5.39h5.73v-3.18H131s-2.94.27-3.19-2.21l-.14-2.63Z" transform="translate(-0.14 -0.25)"/><path d="M171.73,117.25V100.61h6.49V97.09H172v-4.9h-5.78v27.69c-.26,5.48,4.77,5.39,4.77,5.39h5.73v-3.18h-1.68s-2.94.27-3.18-2.21l-.15-2.63Z" transform="translate(-0.14 -0.25)"/><path d="M226.5,96.83H239s5.79-.16,7.67,2.77c0,0,2,2.33,2.11,7.89V125.4h-5.51V107.71s.16-6.62-4.72-6.61h-6.68v24.3H226.5V96.83Z" transform="translate(-0.14 -0.25)"/><path d="M196.12,118.75c-2.26-6.31,0-14.79,0-14.79A8.9,8.9,0,0,1,201,98c2.4-1.42,9.23-.8,9.23-.8a9.67,9.67,0,0,1,8.15,4.93c2.47,4.65,1.3,14.21,1.3,14.21-.6,6.3-4.41,8.1-4.41,8.1-4.5,2.48-13.59.36-13.59.36a8.53,8.53,0,0,1-5.55-6.07Zm15.09-17a6.22,6.22,0,0,0-7,.18s-4,2.47-1.76,15.75c0,0,.39,3.67,4,4,0,0,4.94.69,5.94-1.78a13.34,13.34,0,0,0,1.25-4.81s1.38-10.53-2.45-13.38Z" transform="translate(-0.14 -0.25)"/><path class="cls-5" d="M256.31,116a4.76,4.76,0,0,0-1.51,3.55,4.81,4.81,0,0,0,1.5,3.57,5.28,5.28,0,0,0,7.33,0,4.93,4.93,0,0,0,0-7.12,5.27,5.27,0,0,0-7.32,0Zm7.92,7.69a6.16,6.16,0,0,1-8.52,0,5.73,5.73,0,0,1,0-8.25,6.18,6.18,0,0,1,8.51,0,5.48,5.48,0,0,1,1.77,4.11,5.58,5.58,0,0,1-1.77,4.14Zm-3.13-6.35a3.08,3.08,0,0,0-1.41-.24h-1v2.32h1.05a3.4,3.4,0,0,0,1.11-.14,1,1,0,0,0,.68-1,1,1,0,0,0-.44-.94Zm-1.25-1a5.35,5.35,0,0,1,1.81.23,1.59,1.59,0,0,1,1,1.62,1.37,1.37,0,0,1-.65,1.27,2.77,2.77,0,0,1-1,.31,1.61,1.61,0,0,1,1.14.62,1.74,1.74,0,0,1,.37,1v.46c0,.15,0,.31,0,.48a.86.86,0,0,0,.06.33l0,.08H261.6s0,0,0-.06,0-.05,0-.07l0-.21v-.51a1.56,1.56,0,0,0-.62-1.47,3,3,0,0,0-1.3-.2h-.92v2.52h-1.16v-6.4Z" transform="translate(-0.14 -0.25)"/></svg>